<svg xmlns="http://www.w3.org/2000/svg" width="640" height="400" viewBox="0 0 640 400" font-family="'Chalkboard SE','Comic Neue','Baloo 2','Segoe Print',sans-serif">
  <defs>
    <linearGradient id="sky" x1="0" y1="0" x2="0" y2="1">
      <stop offset="0" stop-color="#FFE9CF"/>
      <stop offset="0.62" stop-color="#FFD9EC"/>
    </linearGradient>
    <linearGradient id="grass" x1="0" y1="0" x2="0" y2="1">
      <stop offset="0" stop-color="#A9E4A0"/>
      <stop offset="1" stop-color="#7FCB7A"/>
    </linearGradient>
    <radialGradient id="sun" cx="0.5" cy="0.5" r="0.5">
      <stop offset="0" stop-color="#FFF3C8"/><stop offset="1" stop-color="#FFF3C8" stop-opacity="0"/>
    </radialGradient>
  </defs>

  <rect width="640" height="400" fill="url(#sky)"/>
  <circle cx="92" cy="80" r="70" fill="url(#sun)"/>
  <g fill="#FFFFFF" opacity="0.75">
    <g><circle cx="150" cy="70" r="15"/><circle cx="168" cy="74" r="12"/><circle cx="135" cy="75" r="11"/></g>
    <g><circle cx="500" cy="56" r="17"/><circle cx="520" cy="60" r="13"/><circle cx="482" cy="61" r="12"/></g>
  </g>
  <path d="M0 232 Q160 196 340 228 Q520 252 640 216 L640 400 L0 400 Z" fill="#BDECB0"/>
  <g fill="#D8A874">
    <g><rect x="60" y="196" width="15" height="50" rx="5"/><path d="M60 196 L67 187 L75 196 Z"/></g>
    <g><rect x="120" y="196" width="15" height="50" rx="5"/><path d="M120 196 L127 187 L135 196 Z"/></g>
    <g><rect x="510" y="196" width="15" height="50" rx="5"/><path d="M510 196 L517 187 L525 196 Z"/></g>
    <g><rect x="570" y="196" width="15" height="50" rx="5"/><path d="M570 196 L577 187 L585 196 Z"/></g>
  </g>
  <rect x="40" y="206" width="560" height="8" fill="#B9895A" opacity="0.85"/>
  <rect x="0" y="240" width="640" height="160" fill="url(#grass)"/>

  <g transform="translate(548,236)">
    <rect x="-40" y="0" width="80" height="54" rx="7" fill="#B9895A"/>
    <path d="M-48 4 L0 -30 L48 4 Z" fill="#FF8FB0"/>
    <path d="M0 46 a20 22 0 0 0 -20 -22 v22 h40 v-22 a20 22 0 0 0 -20 22 Z" fill="#5B4636"/>
  </g>

  <g>
    <g transform="translate(90,300)" fill="#FF8FB0"><circle cx="0" cy="-4" r="3.4"/><circle cx="4" cy="0" r="3.4"/><circle cx="0" cy="4" r="3.4"/><circle cx="-4" cy="0" r="3.4"/><circle cx="0" cy="0" r="2.4" fill="#FFD36B"/></g>
    <g transform="translate(470,320)" fill="#8FD3EE"><circle cx="0" cy="-4" r="3.4"/><circle cx="4" cy="0" r="3.4"/><circle cx="0" cy="4" r="3.4"/><circle cx="-4" cy="0" r="3.4"/><circle cx="0" cy="0" r="2.4" fill="#FFD36B"/></g>
    <g transform="translate(150,340)" fill="#FFFFFF"><circle cx="0" cy="-4" r="3.4"/><circle cx="4" cy="0" r="3.4"/><circle cx="0" cy="4" r="3.4"/><circle cx="-4" cy="0" r="3.4"/><circle cx="0" cy="0" r="2.4" fill="#FFD36B"/></g>
  </g>

  <g fill="#FFC7DD" opacity="0.9">
    <path d="M120 150 c0-6 -10-6 -10 1 c0 6 10 11 10 15 c0-4 10-9 10-15 c0-7 -10-7 -10-1 Z"/>
    <path d="M470 130 c0-7 -12-7 -12 1 c0 7 12 13 12 17 c0-4 12-10 12-17 c0-8 -12-8 -12-1 Z" fill="#FF8FB0"/>
  </g>

  <ellipse cx="300" cy="322" rx="118" ry="26" fill="#6B5876" opacity="0.12"/>
  <ellipse cx="300" cy="318" rx="104" ry="22" fill="#8FD3EE"/>
  <ellipse cx="300" cy="314" rx="80" ry="15" fill="#FFFFFF"/>

  <g transform="translate(300,244)">
    <g transform="translate(46,30) rotate(-24)"><ellipse cx="26" cy="0" rx="27" ry="15" fill="#E2B375"/><circle cx="48" cy="0" r="12" fill="#FCEFD2"/></g>
    <ellipse cx="-32" cy="86" rx="18" ry="11" fill="#E2B375"/>
    <ellipse cx="32" cy="86" rx="18" ry="11" fill="#E2B375"/>
    <ellipse cx="0" cy="36" rx="58" ry="64" fill="#F3D6A0"/>
    <ellipse cx="0" cy="48" rx="36" ry="42" fill="#FCEFD2"/>
    <ellipse cx="-21" cy="92" rx="16" ry="13" fill="#FCEFD2"/>
    <ellipse cx="21" cy="92" rx="16" ry="13" fill="#FCEFD2"/>
    <path d="M0 16 L-26 3 L-26 29 Z M0 16 L26 3 L26 29 Z" fill="#4E9ECB"/>
    <circle cx="0" cy="16" r="6.5" fill="#3E7FB0"/>
    <g transform="translate(0,-48)">
      <g transform="translate(-48,-10) rotate(-28)"><ellipse cx="-6" cy="16" rx="21" ry="35" fill="#E2B375"/></g>
      <g transform="translate(48,-10) rotate(28)"><ellipse cx="6" cy="16" rx="21" ry="35" fill="#E2B375"/></g>
      <circle cx="0" cy="0" r="52" fill="#F3D6A0"/>
      <ellipse cx="21" cy="-9" rx="24" ry="24" fill="#E7BC80"/>
      <ellipse cx="0" cy="20" rx="27" ry="21" fill="#FCEFD2"/>
      <g>
        <ellipse cx="-21" cy="-10" rx="13" ry="16" fill="#FFFFFF"/><circle cx="-21" cy="-6" r="8" fill="#4A3A5A"/><circle cx="-24" cy="-9" r="3.4" fill="#FFFFFF"/>
        <ellipse cx="21" cy="-10" rx="13" ry="16" fill="#FFFFFF"/><circle cx="21" cy="-6" r="8" fill="#4A3A5A"/><circle cx="18" cy="-9" r="3.4" fill="#FFFFFF"/>
      </g>
      <circle cx="-29" cy="10" r="7" fill="#FFC7DD" opacity="0.75"/>
      <circle cx="29" cy="10" r="7" fill="#FFC7DD" opacity="0.75"/>
      <path d="M0 9 L-8 16 L8 16 Z" fill="#4A3A5A"/><circle cx="0" cy="16" r="4" fill="#4A3A5A"/>
      <rect x="-6" y="23" width="12" height="14" rx="6" fill="#FF8FB0"/>
      <g transform="translate(-38,-38) rotate(-24)"><path d="M0 0 L-20 -12 L-20 12 Z M0 0 L20 -12 L20 12 Z" fill="#FF8FB0"/><circle cx="0" cy="0" r="6" fill="#F26B95"/></g>
    </g>
  </g>

  <g transform="translate(566,120)">
    <g fill="#F0A62E"><path d="M-7 8 L-14 34 L-2 25 Z"/><path d="M7 8 L14 34 L2 25 Z"/></g>
    <circle cx="0" cy="0" r="22" fill="#FFD36B"/>
    <circle cx="0" cy="0" r="15" fill="#F0A62E"/><circle cx="0" cy="0" r="9" fill="#FFD36B"/>
    <text x="0" y="5" font-size="14" font-weight="900" text-anchor="middle" fill="#F0A62E">★</text>
  </g>

  <text x="300" y="60" font-size="52" font-weight="900" text-anchor="middle" fill="#6B5876" opacity="0.25">Best in Show</text>
  <text x="298" y="57" font-size="52" font-weight="900" text-anchor="middle" fill="#FFFFFF">Best in Show</text>
  <text x="298" y="86" font-size="19" font-weight="900" text-anchor="middle" fill="#FF8FB0">raise your pup &amp; win the rosette!</text>
</svg>
