<svg xmlns="http://www.w3.org/2000/svg" width="640" height="400" viewBox="0 0 640 400">
  <defs>
    <radialGradient id="beam" cx="0.92" cy="0.28" r="0.85">
      <stop offset="0" stop-color="#FFE9A8" stop-opacity="0.95"/>
      <stop offset="0.45" stop-color="#FFE9A8" stop-opacity="0.35"/>
      <stop offset="1" stop-color="#FFE9A8" stop-opacity="0"/>
    </radialGradient>
    <radialGradient id="fog1" cx="0.3" cy="0.7" r="0.6">
      <stop offset="0" stop-color="#8FA6BC" stop-opacity="0.28"/>
      <stop offset="1" stop-color="#8FA6BC" stop-opacity="0"/>
    </radialGradient>
    <radialGradient id="fog2" cx="0.6" cy="0.3" r="0.5">
      <stop offset="0" stop-color="#8FA6BC" stop-opacity="0.2"/>
      <stop offset="1" stop-color="#8FA6BC" stop-opacity="0"/>
    </radialGradient>
    <radialGradient id="glow" cx="0.5" cy="0.5" r="0.5">
      <stop offset="0" stop-color="#FFE9A8" stop-opacity="1"/>
      <stop offset="1" stop-color="#F2B950" stop-opacity="0"/>
    </radialGradient>
  </defs>
  <rect width="640" height="400" fill="#0A1522"/>
  <g fill="#27435F" opacity="0.7">
    <rect x="60" y="330" width="10" height="2"/><rect x="150" y="360" width="8" height="2"/>
    <rect x="260" y="345" width="12" height="2"/><rect x="390" y="365" width="9" height="2"/>
    <rect x="480" y="340" width="10" height="2"/><rect x="90" y="380" width="7" height="2"/>
    <rect x="330" y="385" width="11" height="2"/><rect x="210" y="375" width="8" height="2"/>
  </g>
  <path d="M590 112 L60 200 L60 330 L590 132 Z" fill="url(#beam)"/>
  <g fill="#101E2E">
    <path d="M95 305 L120 285 L150 295 L160 320 L130 335 L92 328 Z"/>
    <path d="M430 350 L455 332 L488 340 L495 365 L460 378 L425 370 Z"/>
  </g>
  <g transform="translate(215,255)">
    <path d="M38 0 Q20 -11 -28 -9 Q-37 0 -28 9 Q20 11 38 0 Z" fill="#16283B"/>
    <path d="M0 -3 L0 -26 L17 -4 Z" fill="#DCE6EE" opacity="0.85"/>
    <circle cx="-32" cy="0" r="4" fill="#FFE9A8"/>
    <circle cx="-32" cy="0" r="9" fill="url(#glow)" opacity="0.8"/>
  </g>
  <rect width="640" height="400" fill="url(#fog1)"/>
  <rect width="640" height="400" fill="url(#fog2)"/>
  <g fill="#04090F">
    <path d="M600 400 L560 400 L566 180 L594 180 Z"/>
    <rect x="558" y="166" width="44" height="18"/>
    <path d="M554 166 L580 140 L606 166 Z"/>
    <path d="M540 400 L640 400 L640 330 L604 322 Z"/>
  </g>
  <g fill="#8FA6BC" opacity="0.16">
    <rect x="564" y="230" width="34" height="14"/>
    <rect x="562" y="290" width="38" height="14"/>
  </g>
  <rect x="568" y="170" width="24" height="12" fill="#FFE9A8"/>
  <circle cx="580" cy="176" r="26" fill="url(#glow)" opacity="0.9"/>
  <circle cx="612" cy="316" r="5" fill="#37D69B"/>
  <circle cx="612" cy="316" r="11" fill="#37D69B" opacity="0.25"/>
  <g stroke="#0F2033" stroke-width="2.5" fill="none" opacity="0.9">
    <path d="M120 96 Q127 104 134 96"/>
    <path d="M165 118 Q171 125 177 118"/>
  </g>
  <text x="320" y="76" text-anchor="middle" font-family="Iowan Old Style, Palatino Linotype, Palatino, Georgia, serif" font-size="52" font-weight="700" fill="#FFE9A8">FOGSPEAK</text>
  <text x="320" y="106" text-anchor="middle" font-family="Iowan Old Style, Palatino Linotype, Palatino, Georgia, serif" font-size="19" fill="#8FA6BC">◦ — ◦&#160;&#160;&#160;talk the ships home&#160;&#160;&#160;◦ — ◦</text>
</svg>