<svg xmlns="http://www.w3.org/2000/svg" width="640" height="400" viewBox="0 0 640 400">
  <defs>
    <linearGradient id="sky" x1="0" y1="0" x2="0" y2="1">
      <stop offset="0" stop-color="#141034"/>
      <stop offset="1" stop-color="#2B1E5C"/>
    </linearGradient>
  </defs>
  <rect width="640" height="400" fill="url(#sky)"/>
  <g fill="#F9F5E3">
    <rect x="60" y="40" width="3" height="3" opacity=".6"/><rect x="150" y="90" width="2" height="2" opacity=".4"/>
    <rect x="240" y="30" width="2" height="2" opacity=".5"/><rect x="330" y="70" width="3" height="3" opacity=".35"/>
    <rect x="600" y="200" width="2" height="2" opacity=".5"/><rect x="40" y="180" width="2" height="2" opacity=".45"/>
    <rect x="560" y="40" width="2" height="2" opacity=".4"/><rect x="110" y="250" width="2" height="2" opacity=".35"/>
  </g>
  <circle cx="520" cy="92" r="86" fill="#FFF7DC" opacity=".10"/>
  <circle cx="520" cy="92" r="64" fill="#FFF7DC" opacity=".16"/>
  <circle cx="520" cy="92" r="46" fill="#F7E8B5"/>
  <g fill="#B7A6FF" opacity=".55">
    <rect x="120" y="118" width="16" height="4" rx="2"/><rect x="150" y="118" width="16" height="4" rx="2"/>
    <rect x="180" y="118" width="16" height="4" rx="2"/><rect x="210" y="118" width="16" height="4" rx="2"/>
  </g>
  <ellipse cx="70" cy="420" rx="180" ry="110" fill="#0C0A22"/>
  <ellipse cx="330" cy="440" rx="220" ry="120" fill="#0C0A22"/>
  <ellipse cx="580" cy="415" rx="190" ry="105" fill="#0C0A22"/>
  <polygon points="98,318 310,150 330,196 108,332" fill="#B7A6FF" opacity=".3"/>
  <rect x="240" y="330" width="180" height="46" rx="12" fill="#1B1440" stroke="#6C4AB6" stroke-opacity=".5" stroke-width="3"/>
  <ellipse cx="330" cy="332" rx="86" ry="9" fill="#35652B"/>
  <g stroke-width="4">
    <g transform="translate(330 306)">
      <rect x="-84" y="-38" width="168" height="76" rx="30" fill="#4E9F3D" stroke="#2F6B24"/>
      <ellipse cx="0" cy="16" rx="48" ry="18" fill="#F9F5E3" opacity=".95"/>
      <circle cx="-26" cy="-32" r="12" fill="#4E9F3D" stroke="#2F6B24"/><circle cx="26" cy="-32" r="12" fill="#4E9F3D" stroke="#2F6B24"/>
      <circle cx="-26" cy="-32" r="7" fill="#F9F5E3" stroke="none"/><circle cx="26" cy="-32" r="7" fill="#F9F5E3" stroke="none"/>
      <circle cx="-26" cy="-31" r="3" fill="#141034" stroke="none"/><circle cx="26" cy="-31" r="3" fill="#141034" stroke="none"/>
    </g>
    <g transform="translate(326 244) rotate(-4)">
      <rect x="-56" y="-28" width="112" height="56" rx="23" fill="#7BC950" stroke="#4E8F31"/>
      <ellipse cx="0" cy="12" rx="32" ry="12" fill="#F9F5E3" opacity=".95"/>
      <circle cx="-18" cy="-24" r="9" fill="#7BC950" stroke="#4E8F31"/><circle cx="18" cy="-24" r="9" fill="#7BC950" stroke="#4E8F31"/>
      <circle cx="-18" cy="-24" r="5" fill="#F9F5E3" stroke="none"/><circle cx="18" cy="-24" r="5" fill="#F9F5E3" stroke="none"/>
      <circle cx="-18" cy="-23" r="2.4" fill="#141034" stroke="none"/><circle cx="18" cy="-23" r="2.4" fill="#141034" stroke="none"/>
    </g>
    <g transform="translate(336 198) rotate(7)">
      <rect x="-52" y="-26" width="104" height="52" rx="22" fill="#8FD6A8" stroke="#5CA97E"/>
      <ellipse cx="0" cy="11" rx="30" ry="11" fill="#F9F5E3" opacity=".95"/>
      <rect x="-38" y="-14" width="30" height="9" rx="4" fill="#FFFFFF" opacity=".4" stroke="none"/>
      <circle cx="-16" cy="-22" r="8" fill="#8FD6A8" stroke="#5CA97E"/><circle cx="16" cy="-22" r="8" fill="#8FD6A8" stroke="#5CA97E"/>
      <circle cx="-16" cy="-22" r="4.5" fill="#F9F5E3" stroke="none"/><circle cx="16" cy="-22" r="4.5" fill="#F9F5E3" stroke="none"/>
      <circle cx="-16" cy="-21" r="2.2" fill="#141034" stroke="none"/><circle cx="16" cy="-21" r="2.2" fill="#141034" stroke="none"/>
    </g>
    <g transform="translate(322 158) rotate(-14)">
      <rect x="-34" y="-18" width="68" height="36" rx="15" fill="#A8E063" stroke="#74A83E"/>
      <ellipse cx="0" cy="8" rx="20" ry="8" fill="#F9F5E3" opacity=".95"/>
      <circle cx="-11" cy="-16" r="6" fill="#A8E063" stroke="#74A83E"/><circle cx="11" cy="-16" r="6" fill="#A8E063" stroke="#74A83E"/>
      <circle cx="-11" cy="-16" r="3.4" fill="#F9F5E3" stroke="none"/><circle cx="11" cy="-16" r="3.4" fill="#F9F5E3" stroke="none"/>
      <circle cx="-11" cy="-15" r="1.7" fill="#141034" stroke="none"/><circle cx="11" cy="-15" r="1.7" fill="#141034" stroke="none"/>
    </g>
  </g>
  <g transform="translate(86 316)">
    <path d="M -17 34 Q -17 2 0 -4 Q 17 2 17 34 Z" fill="#6C4AB6"/>
    <circle cx="0" cy="-8" r="11" fill="#F9F5E3"/>
    <circle cx="-4" cy="-9" r="1.8" fill="#141034"/><circle cx="4" cy="-9" r="1.8" fill="#141034"/>
    <polygon points="0,-52 24,-16 -24,-16" fill="#4B2E9E"/>
    <rect x="-28" y="-18" width="56" height="8" rx="4" fill="#4B2E9E"/>
    <path d="M 7 -34 L 10 -27 L 17 -27 L 11 -23 L 13 -16 L 7 -20 L 1 -16 L 3 -23 L -3 -27 L 4 -27 Z" fill="#FFD447"/>
  </g>
  <g fill="#FFD447">
    <circle cx="256" cy="140" r="3"/><circle cx="404" cy="176" r="2.5"/><circle cx="272" cy="262" r="2.5"/><circle cx="396" cy="300" r="3"/>
  </g>
  <text x="320" y="386" text-anchor="middle" font-family="Fredoka, Baloo 2, Comic Sans MS, sans-serif" font-weight="700" font-size="44" fill="#F9F5E3" stroke="#4B2E9E" stroke-width="7" paint-order="stroke">FROGGLE TOWER</text>
</svg>